<svg width="83" height="83" viewBox="0 0 83 83" fill="none" xmlns="http://www.w3.org/2000/svg">
<circle cx="41.5" cy="41.5" r="41.5" fill="#664764"/>
<path d="M46.3387 74.9678C46.3387 76.9008 44.7717 78.4678 42.8387 78.4678C40.9057 78.4678 39.3387 76.9008 39.3387 74.9678H46.3387ZM40.3639 13.5897C41.7307 12.2228 43.9468 12.2228 45.3136 13.5897L67.5875 35.8635C68.9543 37.2304 68.9543 39.4464 67.5875 40.8133C66.2206 42.1801 64.0046 42.1801 62.6377 40.8133L42.8387 21.0143L23.0398 40.8133C21.6729 42.1801 19.4568 42.1801 18.09 40.8133C16.7232 39.4464 16.7232 37.2304 18.09 35.8635L40.3639 13.5897ZM39.3387 74.9678V16.0645H46.3387V74.9678H39.3387Z" fill="#FFE6FF"/>
</svg>
