<?xml version="1.0" encoding="utf-8"?>
<!-- Generator: Adobe Illustrator 18.0.0, SVG Export Plug-In . SVG Version: 6.00 Build 0)  -->
<!DOCTYPE svg PUBLIC "-//W3C//DTD SVG 1.1//EN" "http://www.w3.org/Graphics/SVG/1.1/DTD/svg11.dtd">
<svg version="1.1" id="Camada_1" xmlns="http://www.w3.org/2000/svg" xmlns:xlink="http://www.w3.org/1999/xlink" x="0px" y="0px"
	 viewBox="0 0 240 240" enable-background="new 0 0 240 240" xml:space="preserve">
<g transform="translate(0.000000,240.000000) scale(0.100000,-0.100000)">
	<path fill="#FFF6FF" d="M970,2301c-305-68-555-237-727-493C-58,1357,2,752,386,366C501,250,676,138,808,95c49-16,55-16,77-1
		c24,16,25,20,25,135v118l-88-5c-103-5-183,13-231,54c-17,14-50,62-73,106c-38,74-66,108-144,177c-26,23-27,24-9,37
		c43,32,130,1,185-65c96-117,133-148,188-160c49-10,94-6,162,14c9,3,21,24,27,48c6,23,22,58,35,77l24,35l-81,16
		c-170,35-275,96-344,200c-64,96-85,179-86,334c0,146,16,206,79,288c28,36,31,47,23,68c-15,36-11,188,5,234c13,34,20,40,47,43
		c45,5,129-24,214-72l73-42l64,15c91,21,364,20,446,0l62-16l58,35c77,46,175,82,224,82c39,0,39-1,55-52c17-59,20-166,5-217
		c-8-30-6-39,16-68c109-144,121-383,29-579c-62-129-193-219-369-252l-84-16l31-55l32-56l3-223l4-223l25-16c23-15,28-15,76,2
		c80,27,217,101,292,158c446,334,590,933,343,1431c-145,293-419,518-733,602C1358,2322,1100,2330,970,2301z"/>
</g>
</svg>
