<?xml version="1.0" encoding="utf-8"?>
<!-- Generator: Adobe Illustrator 18.0.0, SVG Export Plug-In . SVG Version: 6.00 Build 0)  -->
<!DOCTYPE svg PUBLIC "-//W3C//DTD SVG 1.1//EN" "http://www.w3.org/Graphics/SVG/1.1/DTD/svg11.dtd">
<svg version="1.1" id="Camada_1" xmlns="http://www.w3.org/2000/svg" xmlns:xlink="http://www.w3.org/1999/xlink" x="0px" y="0px"
	 viewBox="0 0 240 240" enable-background="new 0 0 240 240" xml:space="preserve">
<g>
	<path fill="#FFF6FF" d="M120,234.8c-63.4,0-115.1-51.7-114.8-115C5.5,56.3,56.7,5.2,120,5.2c63.4,0,115.1,51.7,114.8,115
		C234.5,183.7,183.3,234.8,120,234.8z M120.2,60.4c-19.5,0-38.9,0-58.4,0c-10.1,0-16.3,6.1-16.3,16.3c0,28.8,0,57.6,0,86.4
		c0,10.4,6,16.5,16.4,16.5c38.7,0,77.5,0,116.2,0c10.3,0,16.4-6.1,16.4-16.5c0-28.7,0-57.4,0-86.1c0-10.6-6-16.6-16.5-16.6
		C158.7,60.4,139.4,60.4,120.2,60.4z"/>
	<path fill="#FFF6FF" d="M75.3,99.1c0,22.2,0,43.7,0,65.5c-5,0-9.7,0-14.7,0c0-29.6,0-59.2,0-89.1c4.5-0.3,8.7-0.4,12.9,2.3
		c14.8,9.5,29.8,18.5,44.7,27.8c1.5,0.9,2.3,0.7,3.7-0.1c15.7-9.7,31.3-19.5,47.2-28.9c2.7-1.6,6.6-1.2,10.3-1.8
		c0,30.3,0,59.9,0,89.8c-4.7,0-9.5,0-14.6,0c0-21.6,0-43.2,0-65.4c-5.3,3.3-10.1,6.3-14.9,9.4c-9.4,6-18.8,11.9-28.1,17.9
		c-1.6,1-2.6,0.6-4-0.3C103.9,117.2,89.9,108.3,75.3,99.1z"/>
</g>
</svg>
