<?xml version="1.0" encoding="utf-8"?>
<!-- Generator: Adobe Illustrator 18.0.0, SVG Export Plug-In . SVG Version: 6.00 Build 0)  -->
<!DOCTYPE svg PUBLIC "-//W3C//DTD SVG 1.1//EN" "http://www.w3.org/Graphics/SVG/1.1/DTD/svg11.dtd">
<svg version="1.1" id="Camada_1" xmlns="http://www.w3.org/2000/svg" xmlns:xlink="http://www.w3.org/1999/xlink" x="0px" y="0px"
	 viewBox="0 0 240 240" enable-background="new 0 0 240 240" xml:space="preserve">
<g>
	<path fill="#FFF6FF" d="M113.3,5.6c4.8,0,9.6,0,14.4,0c0.6,0.1,1.3,0.3,2,0.4c4.4,0.6,8.9,1,13.3,1.8c61,12,101.3,70.9,90.7,132.1
		c-9.2,53.1-54,92.8-107.8,95.1c-28.4,1.2-54-6.9-76.3-24.6c-22.9-18.1-36.9-41.7-42-70.5c-0.7-4.1-1.2-8.3-1.7-12.4
		c0-4.8,0-9.6,0-14.4c0.2-1.5,0.4-2.9,0.5-4.4c2.7-24.8,12.2-46.7,29-65.2c17.7-19.6,39.7-31.8,65.7-36.3
		C105,6.7,109.1,6.2,113.3,5.6z M198.3,198c0-0.8,0.1-1.3,0.1-1.8c0-18.5,0-36.9,0-55.4c0-8.1-0.4-16.1-2.5-24c-2.7-10-8-18-18-22
		c-6.6-2.7-13.5-3.5-20.4-3c-11.8,0.8-21.4,5.6-27.8,15.9c-0.2,0.2-0.1,0.6-0.2,0.9c-0.3-0.2-0.5-0.3-0.8-0.5c0-4.6,0-9.1,0-13.6
		c-10.5,0-20.6,0-30.8,0c0,34.6,0,69,0,103.4c10.8,0,21.4,0,32.1,0c0-1.1,0-2,0-2.9c0-16.6,0-33.2,0-49.8c0-5.5,0.5-10.9,2.9-16
		c3.2-6.7,10-10.1,18.3-9.1c7.6,0.8,12.1,4.6,13.6,12.4c0.9,5,1.2,10.2,1.3,15.4c0.2,15.8,0.1,31.7,0.1,47.5c0,0.9,0,1.7,0,2.6
		C177,198,187.5,198,198.3,198z M77.3,198c0-34.7,0-69.1,0-103.5c-10.8,0-21.4,0-32,0c0,34.6,0,69,0,103.5C56,198,66.6,198,77.3,198
		z M61.2,42.8c-10.3,0-18.7,8.4-18.6,18.7c0,10.4,8.5,18.7,18.9,18.6C71.7,80,80.1,71.5,80,61.3C79.9,51,71.5,42.7,61.2,42.8z"/>
</g>
</svg>
