<?xml version="1.0" encoding="utf-8"?>
<!-- Generator: Adobe Illustrator 18.0.0, SVG Export Plug-In . SVG Version: 6.00 Build 0)  -->
<!DOCTYPE svg PUBLIC "-//W3C//DTD SVG 1.1//EN" "http://www.w3.org/Graphics/SVG/1.1/DTD/svg11.dtd">
<svg version="1.1" id="Camada_1" xmlns="http://www.w3.org/2000/svg" xmlns:xlink="http://www.w3.org/1999/xlink" x="0px" y="0px"
	 viewBox="48 985 864 133.5" enable-background="new 48 985 864 133.5" xml:space="preserve">
<g>
	<path fill="#FFE6FF" d="M155.9,997.4c-7-4.1-19.9-5.6-25.1-5.6h-37c-8.5,0-15.4,5.6-15.4,12.5c8.1,30.6,8.1,62.8-0.1,93.4
		c0,6.9,6.9,12.5,15.4,12.5H143c20.1,0,42.1-27.5,42.1-63.2C185.1,1017.6,166.3,1003.5,155.9,997.4z M164.6,1047.3
		c0,8.5,0,33.9,0,33.9c0,3.5-1.7,6.6-4.2,8.1c-1.6,1-3.7,0.5-4.9-0.9l-23.8-29.7c-1.5-1.9-4.4-1.9-6,0l-23.7,29.6
		c-1.2,1.4-3.3,1.9-4.9,0.9c-2.5-1.5-4.2-4.6-4.2-8.1v-59.6c0-7.3,6.8-11.6,11.8-7.5l24,16.4l23.9-16.4c5-4.1,11.8,0.2,11.8,7.5
		C164.6,1021.5,164.6,1040.8,164.6,1047.3z"/>
</g>
<g>
	<path fill="#FFE6FF" d="M237.4,1084v-63.5H255c22.4,0,33.6,10.3,33.6,31c0,9.8-3.1,17.7-9.3,23.6c-6.2,6-14.5,8.9-25,8.9H237.4z
		 M244.9,1027.2v50.1h9.5c8.3,0,14.8-2.2,19.4-6.7c4.6-4.5,7-10.8,7-19c0-16.3-8.7-24.4-26-24.4H244.9z"/>
	<path fill="#FFE6FF" d="M332.6,1084h-7.3v-7.1h-0.2c-3.2,5.4-7.8,8.2-14,8.2c-4.5,0-8.1-1.2-10.6-3.6c-2.6-2.4-3.8-5.6-3.8-9.5
		c0-8.5,5-13.4,15-14.8l13.6-1.9c0-7.7-3.1-11.6-9.3-11.6c-5.5,0-10.4,1.9-14.8,5.6v-7.4c4.5-2.8,9.6-4.3,15.4-4.3
		c10.7,0,16,5.6,16,16.9V1084z M325.3,1061.1l-10.9,1.5c-3.4,0.5-5.9,1.3-7.6,2.5s-2.6,3.3-2.6,6.4c0,2.2,0.8,4,2.4,5.4
		c1.6,1.4,3.7,2.1,6.3,2.1c3.6,0,6.6-1.3,8.9-3.8c2.3-2.5,3.5-5.7,3.5-9.6V1061.1z"/>
	<path fill="#FFE6FF" d="M350,1027.1c-1.3,0-2.4-0.4-3.3-1.3c-0.9-0.9-1.4-2-1.4-3.4c0-1.4,0.5-2.5,1.4-3.4c0.9-0.9,2-1.4,3.3-1.4
		c1.3,0,2.5,0.5,3.4,1.4c0.9,0.9,1.4,2,1.4,3.4c0,1.3-0.5,2.4-1.4,3.3C352.4,1026.7,351.3,1027.1,350,1027.1z M353.5,1084h-7.3
		v-45.4h7.3V1084z"/>
	<path fill="#FFE6FF" d="M400.7,1084h-7.3v-7.1h-0.2c-3.2,5.4-7.8,8.2-14,8.2c-4.5,0-8.1-1.2-10.6-3.6c-2.6-2.4-3.8-5.6-3.8-9.5
		c0-8.5,5-13.4,15-14.8l13.6-1.9c0-7.7-3.1-11.6-9.3-11.6c-5.5,0-10.4,1.9-14.8,5.6v-7.4c4.5-2.8,9.6-4.3,15.4-4.3
		c10.7,0,16,5.6,16,16.9V1084z M393.4,1061.1l-10.9,1.5c-3.4,0.5-5.9,1.3-7.6,2.5s-2.6,3.3-2.6,6.4c0,2.2,0.8,4,2.4,5.4
		c1.6,1.4,3.7,2.1,6.3,2.1c3.6,0,6.6-1.3,8.9-3.8c2.3-2.5,3.5-5.7,3.5-9.6V1061.1z"/>
	<path fill="#FFE6FF" d="M452.1,1084h-7.3v-25.9c0-9.6-3.5-14.4-10.5-14.4c-3.6,0-6.6,1.4-9,4.1c-2.4,2.7-3.6,6.2-3.6,10.3v25.9
		h-7.3v-45.4h7.3v7.5h0.2c3.4-5.7,8.4-8.6,14.9-8.6c5,0,8.8,1.6,11.4,4.8c2.6,3.2,3.9,7.8,3.9,13.9V1084z"/>
	<path fill="#FFE6FF" d="M502.2,1063.1h-32c0.1,5.1,1.5,8.9,4.1,11.7c2.6,2.7,6.2,4.1,10.7,4.1c5.1,0,9.8-1.7,14.1-5.1v6.8
		c-4,2.9-9.3,4.3-15.8,4.3c-6.4,0-11.4-2.1-15.1-6.2c-3.7-4.1-5.5-9.9-5.5-17.4c0-7.1,2-12.8,6-17.3c4-4.4,9-6.7,14.9-6.7
		c5.9,0,10.5,1.9,13.8,5.8c3.2,3.8,4.9,9.2,4.9,16V1063.1z M494.8,1057c0-4.2-1-7.5-3-9.8c-2-2.3-4.8-3.5-8.3-3.5
		c-3.4,0-6.3,1.2-8.7,3.7c-2.4,2.5-3.9,5.7-4.4,9.6H494.8z"/>
	<path fill="#FFE6FF" d="M598.8,1084h-7.4v-42.6c0-3.4,0.2-7.5,0.6-12.4h-0.2c-0.7,2.9-1.3,4.9-1.9,6.2l-21.7,48.8h-3.6l-21.7-48.5
		c-0.6-1.4-1.3-3.6-1.9-6.5h-0.2c0.2,2.5,0.4,6.7,0.4,12.4v42.5H534v-63.5h9.8l19.5,44.3c1.5,3.4,2.5,5.9,2.9,7.6h0.3
		c1.3-3.5,2.3-6.1,3.1-7.8l19.9-44.1h9.3V1084z"/>
	<path fill="#FFE6FF" d="M647,1084h-7.3v-7.1h-0.2c-3.2,5.4-7.8,8.2-14,8.2c-4.5,0-8.1-1.2-10.6-3.6c-2.6-2.4-3.8-5.6-3.8-9.5
		c0-8.5,5-13.4,15-14.8l13.6-1.9c0-7.7-3.1-11.6-9.3-11.6c-5.5,0-10.4,1.9-14.8,5.6v-7.4c4.5-2.8,9.6-4.3,15.4-4.3
		c10.7,0,16,5.6,16,16.9V1084z M639.7,1061.1l-10.9,1.5c-3.4,0.5-5.9,1.3-7.6,2.5c-1.7,1.2-2.6,3.3-2.6,6.4c0,2.2,0.8,4,2.4,5.4
		c1.6,1.4,3.7,2.1,6.3,2.1c3.6,0,6.6-1.3,8.9-3.8c2.3-2.5,3.5-5.7,3.5-9.6V1061.1z"/>
	<path fill="#FFE6FF" d="M691.6,1081.9c-3.5,2.1-7.6,3.1-12.4,3.1c-6.5,0-11.7-2.1-15.7-6.3c-4-4.2-6-9.7-6-16.4
		c0-7.5,2.1-13.5,6.4-18s10-6.8,17.1-6.8c4,0,7.5,0.7,10.5,2.2v7.4c-3.4-2.4-7-3.5-10.8-3.5c-4.6,0-8.4,1.7-11.4,5
		c-3,3.3-4.5,7.7-4.5,13.1c0,5.3,1.4,9.5,4.2,12.6c2.8,3.1,6.5,4.6,11.2,4.6c4,0,7.7-1.3,11.2-3.9V1081.9z"/>
	<path fill="#FFE6FF" d="M740.3,1084H733v-26.1c0-9.5-3.5-14.2-10.5-14.2c-3.5,0-6.5,1.4-8.9,4.1c-2.4,2.7-3.6,6.2-3.6,10.5v25.7
		h-7.3v-67.2h7.3v29.3h0.2c3.5-5.7,8.4-8.6,14.9-8.6c10.2,0,15.3,6.2,15.3,18.5V1084z"/>
	<path fill="#FFE6FF" d="M786.4,1084h-7.3v-7.1H779c-3.2,5.4-7.8,8.2-14,8.2c-4.5,0-8.1-1.2-10.6-3.6c-2.6-2.4-3.8-5.6-3.8-9.5
		c0-8.5,5-13.4,15-14.8l13.6-1.9c0-7.7-3.1-11.6-9.3-11.6c-5.5,0-10.4,1.9-14.8,5.6v-7.4c4.5-2.8,9.6-4.3,15.4-4.3
		c10.7,0,16,5.6,16,16.9V1084z M779.2,1061.1l-10.9,1.5c-3.4,0.5-5.9,1.3-7.6,2.5c-1.7,1.2-2.6,3.3-2.6,6.4c0,2.2,0.8,4,2.4,5.4
		c1.6,1.4,3.7,2.1,6.3,2.1c3.6,0,6.6-1.3,8.9-3.8c2.3-2.5,3.5-5.7,3.5-9.6V1061.1z"/>
	<path fill="#FFE6FF" d="M838.8,1084h-7.3v-7.7h-0.2c-3.4,5.8-8.6,8.8-15.6,8.8c-5.7,0-10.3-2-13.7-6.1c-3.4-4.1-5.1-9.6-5.1-16.6
		c0-7.5,1.9-13.5,5.7-18c3.8-4.5,8.8-6.8,15.1-6.8c6.2,0,10.8,2.5,13.6,7.4h0.2v-28.1h7.3V1084z M831.6,1063.5v-6.7
		c0-3.7-1.2-6.8-3.6-9.3c-2.4-2.5-5.5-3.8-9.2-3.8c-4.4,0-7.9,1.6-10.5,4.9c-2.5,3.2-3.8,7.7-3.8,13.5c0,5.2,1.2,9.4,3.7,12.4
		c2.4,3,5.7,4.5,9.8,4.5c4,0,7.3-1.5,9.9-4.4C830.3,1071.6,831.6,1067.9,831.6,1063.5z"/>
	<path fill="#FFE6FF" d="M872.5,1085.1c-6.7,0-12.1-2.1-16.1-6.4s-6-9.9-6-16.9c0-7.6,2.1-13.6,6.2-17.9c4.2-4.3,9.8-6.4,16.9-6.4
		c6.8,0,12,2.1,15.8,6.2c3.8,4.2,5.7,9.9,5.7,17.3c0,7.2-2,13-6.1,17.4C884.9,1082.9,879.4,1085.1,872.5,1085.1z M873,1043.7
		c-4.7,0-8.4,1.6-11.1,4.8c-2.7,3.2-4.1,7.6-4.1,13.1c0,5.4,1.4,9.6,4.1,12.7c2.7,3.1,6.4,4.7,11,4.7c4.7,0,8.3-1.5,10.8-4.6
		c2.5-3,3.8-7.4,3.8-13c0-5.7-1.3-10-3.8-13.1C881.3,1045.2,877.7,1043.7,873,1043.7z"/>
</g>
</svg>
