<?xml version="1.0" encoding="utf-8"?>
<!-- Generator: Adobe Illustrator 18.0.0, SVG Export Plug-In . SVG Version: 6.00 Build 0)  -->
<!DOCTYPE svg PUBLIC "-//W3C//DTD SVG 1.1//EN" "http://www.w3.org/Graphics/SVG/1.1/DTD/svg11.dtd">
<svg version="1.1" id="Camada_1" xmlns="http://www.w3.org/2000/svg" xmlns:xlink="http://www.w3.org/1999/xlink" x="0px" y="0px"
	 viewBox="0 0 188 185" enable-background="new 0 0 188 185" xml:space="preserve">
<path fill="#664764" d="M68.4,120.8c-8.8,2-13.2-2-15.5-9.8c-1.8-6.1-5.7-10.4-11.4-13c-0.6-0.4-1.2-1-2-1.2
	c-5.7-2.6-7.7-6.9-5.9-12.8c2.4-7.9,1.2-15.3-3.1-22.2c-3.3-5.1-2.4-9.6,2-13.4c6.3-5.5,9.2-12.6,9.4-21c0.2-5.3,2.4-8.8,7.9-9.6
	c9-1.4,15.7-5.9,20.6-13.4C73.3,0,77.2-1,81.7,1c8.4,3.7,16.5,3.5,24.8,0c4.5-2,8.4-0.8,11,3.3c4.9,7.5,11.6,12,20.6,13.4
	c5.5,0.8,7.7,4.1,8.1,9.6c0.2,3.3,0.6,6.5,1.4,9.6c0.4,1.6,1.2,3.5,2.4,4.9c2.4,3.1,5.1,5.9,7.5,9c2.2,2.6,2.6,5.3,1.2,8.4
	c-1.2,2.9-2.4,5.7-3.9,8.6c-1.8,3.3-2.2,6.7-1.4,10.4c0.6,3.1,1,6.1,1.4,9.2c0.4,3.1-0.6,5.5-3.3,7.3c-3.3,2.2-6.9,4.3-10,6.5
	c-1.6,1.2-3.1,2.9-4.1,4.7c-1.8,3.3-3.3,6.9-4.9,10.4c-1.4,3.1-3.9,4.9-7.1,4.5c-10.2-1.2-19.1,1.2-27.1,7.9c-2.9,2.2-5.9,2-9,0
	c-1.6-1-3.3-1.8-4.7-3.1C79.8,121.8,74.8,119.6,68.4,120.8z M94.1,111.8c25.9,0,46.8-21,46.8-46.8c-0.2-25.7-21-46.4-47.1-46.6
	c-25.9,0-46.8,21-46.8,47.1C47.3,91,68.2,112,94.1,111.8z"/>
<path fill="#664764" d="M79,125.3c2.9,1.8,5.5,3.5,8.1,5.3c5.1,3.5,8.4,3.5,13.4,0c2.6-1.8,5.5-3.5,8.1-5.3
	c5.7,6.1,11.4,12.2,17.1,18.3c9.8,10.4,19.3,20.8,29.1,31.4c3.7,4.1,3.7,4.1,1.2,9.8c-14.1-15.1-28.1-30.1-42.6-45.6
	c0,9.8,0,18.7,0,27.7c-4.3-0.6-5.3-1.8-5.3-5.5c0-8.6,0-16.9,0-25.5c0-1-0.4-2.2-0.6-3.3c-0.4,0-0.6,0-1,0.2c0,10.2,0,20.4,0,31.4
	c-3.9-2-7.3-3.9-10.6-5.7c-1.6-1-3.1-1-4.9,0c-3.3,2-6.5,3.7-10.4,5.7c0-10.8,0-21,0-31.4c-0.4,0-0.6,0-1-0.2
	c-0.2,1-0.6,2.2-0.6,3.3c0,8.1-0.2,16.5,0,24.6c0.2,4.1-1.2,5.9-5.3,6.9c0-9,0-17.9,0-27.1c-0.2-0.2-0.4-0.2-0.8-0.4
	c-14.1,15.1-27.9,29.9-42,45c-2.9-5.3-2.9-5.5,1-9.6c14.9-15.9,29.7-31.8,44.6-47.9C77.6,126.5,78.2,125.9,79,125.3z"/>
<path fill="#664764" d="M179.9,157.2c-4.1,1-7.7,2.2-11.4,2.9c-3.1,0.6-4.5,1.8-5.3,4.9c-1,3.7-2.4,7.1-3.7,11.4
	c-16.3-17.5-32.4-34.6-48.9-52.6c2.2-0.2,3.7-0.2,5.3-0.2c3.3,0,6.5,0,9.6,0c4.7,0,7.9-2,10-6.3c0.8-1.6,1.6-3.3,2.4-5.3
	C151.7,127.1,165.6,142,179.9,157.2z"/>
<path fill="#664764" d="M50.3,111.8c1,2,1.6,3.5,2.4,5.1c1.8,4.5,5.3,6.5,10.2,6.5c3.7,0,7.3,0,11.2,0c1,0,1.8,0.2,3.5,0.2
	C61.1,141.3,45,158.5,28.7,176c-1.4-4.5-3.1-8.6-4.3-12.6c-0.6-1.8-1.4-2.6-3.3-3.1c-4.1-1-8.4-2-13-3.3
	C22.2,142,36.1,127.1,50.3,111.8z"/>
<path fill="#664764" d="M46.6,104.7c3.3,4.5,3.3,4.9-0.2,8.6C34,126.5,21.8,139.7,9.4,153C5.5,157,5.5,157,0,154.6
	C15.5,138.1,31,121.4,46.6,104.7z"/>
<path fill="#664764" d="M141.4,104.7c15.5,16.7,31,33.2,46.6,49.9c-4.9,2.6-5.5,2.4-9-1.2c-12.4-13.4-24.8-26.7-37.5-40.1
	C138.1,109.6,138.1,109.2,141.4,104.7z"/>
<path fill="#FFFFFF" d="M94.1,111.8c-25.7,0-46.8-20.8-46.8-46.4c0-26.1,21-47.1,46.8-47.1c25.9,0,46.8,20.8,46.8,46.6
	C140.7,91,120,111.8,94.1,111.8z M93.9,108.6c23.6,0,43.4-19.1,43.6-42.8c0.2-24.2-18.9-43.8-43-44c-24-0.2-43.6,19.1-43.8,43.4
	C50.5,89,69.9,108.6,93.9,108.6z"/>
<path fill="#664764" d="M93.9,108.6c-24,0-43.4-19.6-43.4-43.6c0.2-24.2,19.8-43.6,43.8-43.4c24,0.4,43.2,20,43,44.2
	C137.3,89.4,117.5,108.8,93.9,108.6z M93.9,106.1c22.4,0,40.9-18.3,40.9-40.7c0-22.8-18.1-41.1-40.7-41.1c-23,0-41.3,18.3-41.3,41.3
	C53,87.8,71.5,106.1,93.9,106.1z"/>
<path fill="#FFFFFF" d="M94.3,24.2c-23,0-41.3,18.3-41.3,41.3c0,22.4,18.5,40.7,41.1,40.7c22.4,0,40.9-18.3,40.9-40.7
	C135,42.8,116.7,24.2,94.3,24.2z"/>
</svg>
