<?xml version="1.0" encoding="utf-8"?>
<!-- Generator: Adobe Illustrator 18.0.0, SVG Export Plug-In . SVG Version: 6.00 Build 0)  -->
<!DOCTYPE svg PUBLIC "-//W3C//DTD SVG 1.1//EN" "http://www.w3.org/Graphics/SVG/1.1/DTD/svg11.dtd">
<svg version="1.1" id="Camada_1" xmlns="http://www.w3.org/2000/svg" xmlns:xlink="http://www.w3.org/1999/xlink" x="0px" y="0px"
	 viewBox="0 0 240 240" enable-background="new 0 0 240 240" xml:space="preserve">
<g>
	<path fill="#FFF6FF" d="M12.9,229.5c2.1-6.2,4-11.7,5.8-17.3c2.5-7.4,4.9-14.9,7.4-22.3c0.7-2.1,0.3-3.7-0.9-5.5
		C14,168.1,7.5,150.1,5.7,130.3c-1.9-21.3,1.8-41.6,11-60.7C22.4,57.8,30,47.2,39.6,38.1C65.4,13.4,96,2.5,131.6,5.7
		c20.2,1.8,38.6,9,55,20.7c13.7,9.7,24.7,22,33.1,36.7c12.2,21.4,16.8,44.3,14.6,68.7c-1.4,15.6-6,30.3-14.1,43.8
		c-4.2,7-8.8,13.8-14.1,20.1c-7.9,9.5-17.4,17.2-28.1,23.4c-21.8,12.6-45.3,17.7-70.3,15.1c-17.4-1.8-33.5-7.6-48.5-16.7
		c-1.3-0.8-3.4-1.1-4.9-0.7c-12.8,3.9-25.6,7.9-38.3,11.9C15.3,229,14.5,229.1,12.9,229.5z M53.2,88.4c0.1,6.5,2.6,16.3,5.3,21.7
		c5.9,12,14.1,22.4,22.8,32.4c16.6,19.2,37.1,32.1,61.5,39c8.6,2.4,17.2,3.8,26,0.5c14.8-5.6,20.3-14,20.5-27.9
		c0-2.2-0.8-3.8-2.8-4.8c-8.7-4.1-17.3-8.4-26-12.4c-4-1.8-6.2-1.2-9.1,2.3c-2.7,3.3-5.4,6.6-7.7,10.2c-2.4,3.8-6.5,3.9-10,2.5
		c-3.7-1.4-7.3-3.2-10.7-5.1c-14.5-8.2-25.5-19.9-34-34.1c-1.5-2.4-1.2-4.7,0.6-6.9c2.7-3.2,5.3-6.4,8.1-9.5c2.1-2.4,2.1-5.1,1-7.8
		c-3.6-8.7-7.4-17.3-11-26c-1.4-3.5-3.7-5.2-7.5-5c-1.3,0.1-2.6-0.1-3.9,0c-3.7,0.2-7.4,0.8-10.3,3.3C57.3,68.6,53.6,78.3,53.2,88.4
		z"/>
</g>
</svg>
